<svg width="16" height="16" viewBox="0 0 16 16" fill="#57606a" xmlns="http://www.w3.org/2000/svg">
<g clip-path="url(#clip0_5_2)">
<path fill-rule="evenodd" clip-rule="evenodd" d="M1.5 8C1.5 6.27609 2.18482 4.62279 3.40381 3.40381C4.62279 2.18482 6.27609 1.5 8 1.5C9.72391 1.5 11.3772 2.18482 12.5962 3.40381C13.8152 4.62279 14.5 6.27609 14.5 8C14.5 9.72391 13.8152 11.3772 12.5962 12.5962C11.3772 13.8152 9.72391 14.5 8 14.5C6.27609 14.5 4.62279 13.8152 3.40381 12.5962C2.18482 11.3772 1.5 9.72391 1.5 8V8ZM8 0C5.87827 0 3.84344 0.842855 2.34315 2.34315C0.842855 3.84344 0 5.87827 0 8C0 10.1217 0.842855 12.1566 2.34315 13.6569C3.84344 15.1571 5.87827 16 8 16C10.1217 16 12.1566 15.1571 13.6569 13.6569C15.1571 12.1566 16 10.1217 16 8C16 5.87827 15.1571 3.84344 13.6569 2.34315C12.1566 0.842855 10.1217 0 8 0V0ZM6.379 5.227C6.34101 5.20412 6.29762 5.19175 6.25327 5.19117C6.20892 5.19059 6.16522 5.20181 6.12664 5.2237C6.08807 5.24558 6.05601 5.27733 6.03375 5.3157C6.0115 5.35406 5.99985 5.39765 6 5.442V10.559C6.00003 10.6033 6.0118 10.6467 6.03413 10.685C6.05646 10.7232 6.08854 10.7548 6.12708 10.7765C6.16563 10.7983 6.20926 10.8095 6.25352 10.8088C6.29778 10.8082 6.34108 10.7958 6.379 10.773L10.643 8.214C10.6798 8.19174 10.7103 8.16035 10.7315 8.12286C10.7526 8.08537 10.7638 8.04305 10.7638 8C10.7638 7.95695 10.7526 7.91463 10.7315 7.87714C10.7103 7.83965 10.6798 7.80825 10.643 7.786L6.379 5.227Z" fill="#57606a"/>
</g>
<defs>
<clipPath id="clip0_5_2">
<rect width="16" height="16" fill="#57606a"/>
</clipPath>
</defs>
</svg>
