<svg width="16" height="16" viewBox="0 0 16 16" fill="#f2edf0" xmlns="http://www.w3.org/2000/svg">
<path d="M8 16C8.48725 16.0002 8.95781 15.8225 9.3233 15.5002C9.6888 15.178 9.92409 14.7334 9.985 14.25C10.002 14.113 9.888 14 9.75 14H6.25C6.112 14 5.998 14.113 6.015 14.25C6.07591 14.7334 6.3112 15.178 6.67669 15.5002C7.04219 15.8225 7.51274 16.0002 8 16Z" fill="#f2edf0"/>
<path fill-rule="evenodd" clip-rule="evenodd" d="M8 1.5C7.07174 1.5 6.1815 1.86875 5.52513 2.52513C4.86875 3.1815 4.5 4.07174 4.5 5V7.947C4.5 8.293 4.398 8.63 4.206 8.917L2.503 11.473C2.50104 11.476 2.49999 11.4794 2.5 11.483L2.501 11.489C2.501 11.491 2.503 11.493 2.505 11.495C2.50669 11.4967 2.50874 11.4981 2.511 11.499L2.518 11.5H13.482L13.489 11.499C13.4913 11.4981 13.4933 11.4968 13.495 11.495C13.4968 11.4933 13.4981 11.4913 13.499 11.489L13.5 11.482C13.5001 11.4784 13.499 11.4749 13.497 11.472L11.794 8.918C11.6025 8.63075 11.5002 8.29326 11.5 7.948V5C11.5 4.07174 11.1313 3.1815 10.4749 2.52513C9.8185 1.86875 8.92826 1.5 8 1.5V1.5ZM3 5C3 3.67392 3.52679 2.40215 4.46447 1.46447C5.40215 0.526784 6.67392 0 8 0C9.32608 0 10.5979 0.526784 11.5355 1.46447C12.4732 2.40215 13 3.67392 13 5V7.947C13 7.997 13.015 8.045 13.042 8.086L14.745 10.641C14.8971 10.8696 14.9844 11.1352 14.9975 11.4095C15.0106 11.6837 14.9491 11.9564 14.8195 12.1985C14.6899 12.4406 14.4971 12.643 14.2615 12.7841C14.026 12.9253 13.7566 12.9999 13.482 13H2.518C2.24325 13 1.97366 12.9254 1.73797 12.7842C1.50228 12.643 1.30933 12.4405 1.17969 12.1983C1.05005 11.956 0.988583 11.6831 1.00185 11.4087C1.01511 11.1343 1.1026 10.8686 1.255 10.64L2.958 8.086C2.98544 8.04484 3.00006 7.99647 3 7.947V5Z" fill="#f2edf0"/>
</svg>
