<svg width="16" height="16" viewBox="0 0 16 16" fill="none" xmlns="http://www.w3.org/2000/svg">
<path fill-rule="evenodd" clip-rule="evenodd" d="M13.78 4.22001C13.9204 4.36064 13.9993 4.55126 13.9993 4.75001C13.9993 4.94876 13.9204 5.13939 13.78 5.28001L6.53 12.53C6.38937 12.6705 6.19875 12.7494 6 12.7494C5.80125 12.7494 5.61062 12.6705 5.47 12.53L2.22 9.28001C2.08752 9.13784 2.0154 8.94979 2.01882 8.75549C2.02225 8.56119 2.10096 8.3758 2.23838 8.23839C2.37579 8.10098 2.56118 8.02226 2.75548 8.01884C2.94978 8.01541 3.13782 8.08753 3.28 8.22001L6 10.94L12.72 4.22001C12.8606 4.07956 13.0512 4.00067 13.25 4.00067C13.4487 4.00067 13.6394 4.07956 13.78 4.22001V4.22001Z" fill="black"/>
</svg>
