<svg width="16" height="12" viewBox="0 0 16 12" fill="none" xmlns="http://www.w3.org/2000/svg">
<g filter="url(#filter0_i_6_25)">
<path fill-rule="evenodd" clip-rule="evenodd" d="M4.72001 1.22C4.86219 1.08752 5.05023 1.0154 5.24453 1.01883C5.43884 1.02225 5.62422 1.10097 5.76163 1.23838C5.89905 1.37579 5.97776 1.56118 5.98119 1.75548C5.98461 1.94978 5.91249 2.13783 5.78001 2.28L2.06001 6L5.78001 9.72C5.8537 9.7887 5.9128 9.8715 5.95379 9.9635C5.99478 10.0555 6.0168 10.1548 6.0186 10.2555C6.0204 10.3562 6.0019 10.4562 5.96413 10.5496C5.92641 10.643 5.87027 10.7278 5.79905 10.799C5.72783 10.8703 5.643 10.9264 5.54961 10.9641C5.45622 11.0018 5.35619 11.0204 5.25549 11.0186C5.15479 11.0168 5.05547 10.9948 4.96347 10.9538C4.87147 10.9128 4.78867 10.8537 4.72001 10.78L0.470011 6.53C0.329561 6.38938 0.250671 6.19875 0.250671 6C0.250671 5.80125 0.329561 5.61063 0.470011 5.47L4.72001 1.22ZM11.28 1.22C11.2113 1.14631 11.1285 1.08721 11.0365 1.04622C10.9446 1.00523 10.8452 0.98319 10.7445 0.98141C10.6438 0.97963 10.5438 0.99816 10.4504 1.03588C10.357 1.0736 10.2722 1.12974 10.201 1.20096C10.1298 1.27218 10.0736 1.35702 10.0359 1.4504C9.9982 1.54379 9.9796 1.64382 9.9814 1.74452C9.9832 1.84523 10.0052 1.94454 10.0462 2.03654C10.0872 2.12854 10.1463 2.21134 10.22 2.28L13.94 6L10.22 9.72C10.1463 9.7887 10.0872 9.8715 10.0462 9.9635C10.0052 10.0555 9.9832 10.1548 9.9814 10.2555C9.9796 10.3562 9.9982 10.4562 10.0359 10.5496C10.0736 10.643 10.1298 10.7278 10.201 10.799C10.2722 10.8703 10.357 10.9264 10.4504 10.9641C10.5438 11.0018 10.6438 11.0204 10.7445 11.0186C10.8452 11.0168 10.9446 10.9948 11.0365 10.9538C11.1285 10.9128 11.2113 10.8537 11.28 10.78L15.53 6.53C15.6705 6.38938 15.7494 6.19875 15.7494 6C15.7494 5.80125 15.6705 5.61063 15.53 5.47L11.28 1.22Z" fill="#57606a"/>
</g>
<defs>
<filter id="filter0_i_6_25" x="0.250671" y="0.981293" width="15.4987" height="14.0374" filterUnits="userSpaceOnUse" color-interpolation-filters="sRGB">
<feFlood flood-opacity="0" result="BackgroundImageFix"/>
<feBlend mode="normal" in="SourceGraphic" in2="BackgroundImageFix" result="shape"/>
<feColorMatrix in="SourceAlpha" type="matrix" values="0 0 0 0 0 0 0 0 0 0 0 0 0 0 0 0 0 0 127 0" result="hardAlpha"/>
<feOffset dy="4"/>
<feGaussianBlur stdDeviation="2"/>
<feComposite in2="hardAlpha" operator="arithmetic" k2="-1" k3="1"/>
<feColorMatrix type="matrix" values="0 0 0 0 0 0 0 0 0 0 0 0 0 0 0 0 0 0 0.25 0"/>
<feBlend mode="normal" in2="shape" result="effect1_innerShadow_6_25"/>
</filter>
</defs>
</svg>
