<svg width="16" height="16" viewBox="0 0 16 16" fill="#57606a" xmlns="http://www.w3.org/2000/svg">
<path fill-rule="evenodd" clip-rule="evenodd" d="M1.679 7.932C2.091 7.311 2.921 6.182 4.045 5.215C5.175 4.242 6.527 3.5 8 3.5C9.473 3.5 10.824 4.242 11.955 5.215C13.079 6.182 13.909 7.311 14.321 7.932C14.3349 7.95195 14.3423 7.97569 14.3423 8C14.3423 8.02431 14.3349 8.04805 14.321 8.068C13.909 8.689 13.079 9.818 11.955 10.785C10.825 11.758 9.473 12.5 8 12.5C6.527 12.5 5.176 11.758 4.045 10.785C2.92 9.818 2.09 8.69 1.679 8.068C1.66511 8.04805 1.65766 8.02431 1.65766 8C1.65766 7.97569 1.66511 7.95195 1.679 7.932ZM8 2C6.019 2 4.33 2.992 3.067 4.078C1.797 5.169 0.880001 6.423 0.430001 7.1C0.252302 7.36615 0.157463 7.67898 0.157463 7.999C0.157463 8.31902 0.252302 8.63185 0.430001 8.898C0.880001 9.576 1.797 10.83 3.067 11.922C4.329 13.008 6.019 14 8 14C9.981 14 11.67 13.008 12.933 11.922C14.203 10.831 15.12 9.577 15.57 8.899C15.7477 8.63285 15.8425 8.32002 15.8425 8C15.8425 7.67998 15.7477 7.36715 15.57 7.101C15.12 6.423 14.203 5.169 12.933 4.078C11.671 2.992 9.981 2 8 2ZM8 10C8.53043 10 9.03914 9.78929 9.41421 9.41421C9.78929 9.03914 10 8.53043 10 8C10 7.46957 9.78929 6.96086 9.41421 6.58579C9.03914 6.21071 8.53043 6 8 6C7.46957 6 6.96086 6.21071 6.58579 6.58579C6.21071 6.96086 6 7.46957 6 8C6 8.53043 6.21071 9.03914 6.58579 9.41421C6.96086 9.78929 7.46957 10 8 10V10Z" fill="#57606a"/>
</svg>
