<svg width="16" height="16" viewBox="0 0 16 16" fill="none" xmlns="http://www.w3.org/2000/svg">
<path fill-rule="evenodd" clip-rule="evenodd" d="M5 3.25C5 3.44891 4.92098 3.63968 4.78033 3.78033C4.63968 3.92098 4.44891 4 4.25 4C4.05108 4 3.86032 3.92098 3.71967 3.78033C3.57901 3.63968 3.5 3.44891 3.5 3.25C3.5 3.05109 3.57901 2.86032 3.71967 2.71967C3.86032 2.57902 4.05108 2.5 4.25 2.5C4.44891 2.5 4.63968 2.57902 4.78033 2.71967C4.92098 2.86032 5 3.05109 5 3.25V3.25ZM5 5.372C5.50041 5.19508 5.92216 4.84695 6.19072 4.38914C6.45928 3.93133 6.55735 3.39332 6.46759 2.8702C6.37784 2.34708 6.10604 1.87253 5.70024 1.53042C5.29444 1.18831 4.78076 1.00068 4.25 1.00068C3.71923 1.00068 3.20555 1.18831 2.79975 1.53042C2.39395 1.87253 2.12215 2.34708 2.0324 2.8702C1.94265 3.39332 2.04072 3.93133 2.30927 4.38914C2.57783 4.84695 2.99959 5.19508 3.5 5.372V6.25C3.5 6.84674 3.73705 7.41903 4.15901 7.84099C4.58096 8.26295 5.15326 8.5 5.75 8.5H7.25V10.628C6.74931 10.8049 6.32729 11.1532 6.05855 11.6112C5.7898 12.0692 5.69163 12.6075 5.78138 13.1309C5.87114 13.6542 6.14305 14.1291 6.54904 14.4713C6.95503 14.8136 7.46897 15.0014 8 15.0014C8.53103 15.0014 9.04496 14.8136 9.45095 14.4713C9.85695 14.1291 10.1289 13.6542 10.2186 13.1309C10.3084 12.6075 10.2102 12.0692 9.94145 11.6112C9.6727 11.1532 9.25069 10.8049 8.75 10.628V8.5H10.25C10.8467 8.5 11.419 8.26295 11.841 7.84099C12.2629 7.41903 12.5 6.84674 12.5 6.25V5.372C13.0004 5.19508 13.4222 4.84695 13.6907 4.38914C13.9593 3.93133 14.0573 3.39332 13.9676 2.8702C13.8778 2.34708 13.606 1.87253 13.2002 1.53042C12.7944 1.18831 12.2808 1.00068 11.75 1.00068C11.2192 1.00068 10.7056 1.18831 10.2998 1.53042C9.89395 1.87253 9.62215 2.34708 9.5324 2.8702C9.44265 3.39332 9.54072 3.93133 9.80927 4.38914C10.0778 4.84695 10.4996 5.19508 11 5.372V6.25C11 6.44891 10.921 6.63968 10.7803 6.78033C10.6397 6.92098 10.4489 7 10.25 7H5.75C5.55108 7 5.36032 6.92098 5.21967 6.78033C5.07901 6.63968 5 6.44891 5 6.25V5.372ZM8.75 12.75C8.75 12.9489 8.67098 13.1397 8.53033 13.2803C8.38967 13.421 8.19891 13.5 8 13.5C7.80108 13.5 7.61032 13.421 7.46967 13.2803C7.32901 13.1397 7.25 12.9489 7.25 12.75C7.25 12.5511 7.32901 12.3603 7.46967 12.2197C7.61032 12.079 7.80108 12 8 12C8.19891 12 8.38967 12.079 8.53033 12.2197C8.67098 12.3603 8.75 12.5511 8.75 12.75ZM11.75 4C11.9489 4 12.1397 3.92098 12.2803 3.78033C12.421 3.63968 12.5 3.44891 12.5 3.25C12.5 3.05109 12.421 2.86032 12.2803 2.71967C12.1397 2.57902 11.9489 2.5 11.75 2.5C11.5511 2.5 11.3603 2.57902 11.2197 2.71967C11.079 2.86032 11 3.05109 11 3.25C11 3.44891 11.079 3.63968 11.2197 3.78033C11.3603 3.92098 11.5511 4 11.75 4Z" fill="#57606a"/>
</svg>
