<svg width="16" height="16" viewBox="0 0 16 16" fill="none" xmlns="http://www.w3.org/2000/svg">
<g clip-path="url(#clip0_5_6)">
<path fill-rule="evenodd" clip-rule="evenodd" d="M1.5 1.75C1.5 1.55109 1.42098 1.36032 1.28033 1.21967C1.13968 1.07902 0.948912 1 0.75 1C0.551088 1 0.360322 1.07902 0.21967 1.21967C0.0790176 1.36032 0 1.55109 0 1.75L0 14.25C0 14.664 0.336 15 0.75 15H15.25C15.4489 15 15.6397 14.921 15.7803 14.7803C15.921 14.6397 16 14.4489 16 14.25C16 14.0511 15.921 13.8603 15.7803 13.7197C15.6397 13.579 15.4489 13.5 15.25 13.5H1.5V1.75ZM15.78 4.28C15.9125 4.13783 15.9846 3.94978 15.9812 3.75548C15.9777 3.56118 15.899 3.37579 15.7616 3.23838C15.6242 3.10097 15.4388 3.02225 15.2445 3.01883C15.0502 3.0154 14.8622 3.08752 14.72 3.22L10 7.94L7.53 5.47C7.38937 5.32955 7.19875 5.25066 7 5.25066C6.80125 5.25066 6.61063 5.32955 6.47 5.47L3.22 8.72C3.08752 8.86218 3.0154 9.05022 3.01883 9.24452C3.02225 9.43882 3.10097 9.62421 3.23838 9.76162C3.37579 9.89903 3.56118 9.97775 3.75548 9.98118C3.94978 9.9846 4.13783 9.91248 4.28 9.78L7 7.06L9.47 9.53C9.61063 9.67045 9.80125 9.74934 10 9.74934C10.1988 9.74934 10.3894 9.67045 10.53 9.53L15.78 4.28V4.28Z" fill="#57606a"/>
</g>
<defs>
<clipPath id="clip0_5_6">
<rect width="16" height="16" fill="white"/>
</clipPath>
</defs>
</svg>
