<svg width="16" height="16" viewBox="0 0 16 16" fill="none" xmlns="http://www.w3.org/2000/svg">
<g clip-path="url(#clip0_5_11)">
<path fill-rule="evenodd" clip-rule="evenodd" d="M-1.07288e-05 1.75C-1.07288e-05 0.784 0.783989 0 1.74999 0H14.25C15.216 0 16 0.784 16 1.75V5.335C16.0822 5.45779 16.1261 5.60223 16.1261 5.75C16.1261 5.89777 16.0822 6.04221 16 6.165V14.25C16 14.7141 15.8156 15.1592 15.4874 15.4874C15.1592 15.8156 14.7141 16 14.25 16H6.30899C6.23881 16.0789 6.15272 16.1421 6.05637 16.1854C5.96002 16.2286 5.8556 16.251 5.74999 16.251C5.64438 16.251 5.53996 16.2286 5.44361 16.1854C5.34726 16.1421 5.26117 16.0789 5.19099 16H1.74999C1.28586 16 0.840741 15.8156 0.512552 15.4874C0.184364 15.1592 -1.07288e-05 14.7141 -1.07288e-05 14.25V6.165C-0.0822141 6.04221 -0.126099 5.89777 -0.126099 5.75C-0.126099 5.60223 -0.0822141 5.45779 -1.07288e-05 5.335V1.75ZM1.49999 6.5V14.25C1.49999 14.388 1.61199 14.5 1.74999 14.5H4.99999V6.5H1.49999ZM4.99999 5H1.49999V1.75C1.49999 1.6837 1.52633 1.62011 1.57321 1.57322C1.6201 1.52634 1.68369 1.5 1.74999 1.5H4.99999V5ZM6.49999 6.5V14.5H14.25C14.3163 14.5 14.3799 14.4737 14.4268 14.4268C14.4737 14.3799 14.5 14.3163 14.5 14.25V6.5H6.49999ZM14.5 5H6.49999V1.5H14.25C14.3163 1.5 14.3799 1.52634 14.4268 1.57322C14.4737 1.62011 14.5 1.6837 14.5 1.75V5Z" fill="#57606a"/>
</g>
<defs>
<clipPath id="clip0_5_11">
<rect width="16" height="16" fill="white"/>
</clipPath>
</defs>
</svg>
