<svg width="16" height="16" viewBox="0 0 16 16" fill="none" xmlns="http://www.w3.org/2000/svg">
<path fill-rule="evenodd" clip-rule="evenodd" d="M7.177 3.07299L9.573 0.676994C9.60796 0.64194 9.65255 0.618058 9.7011 0.608374C9.74966 0.598691 9.79999 0.603643 9.84573 0.622601C9.89147 0.64156 9.93054 0.673672 9.95801 0.714867C9.98547 0.756061 10.0001 0.804483 10 0.853994V5.64599C10.0001 5.6955 9.98547 5.74393 9.95801 5.78512C9.93054 5.82631 9.89147 5.85843 9.84573 5.87739C9.79999 5.89634 9.74966 5.9013 9.7011 5.89161C9.65255 5.88193 9.60796 5.85805 9.573 5.82299L7.177 3.42699C7.15372 3.40377 7.13524 3.37618 7.12264 3.34581C7.11004 3.31544 7.10355 3.28288 7.10355 3.24999C7.10355 3.21711 7.11004 3.18455 7.12264 3.15418C7.13524 3.1238 7.15372 3.09622 7.177 3.07299ZM3.75 2.49999C3.55109 2.49999 3.36032 2.57901 3.21967 2.71966C3.07902 2.86032 3 3.05108 3 3.24999C3 3.44891 3.07902 3.63967 3.21967 3.78032C3.36032 3.92098 3.55109 3.99999 3.75 3.99999C3.94891 3.99999 4.13968 3.92098 4.28033 3.78032C4.42098 3.63967 4.5 3.44891 4.5 3.24999C4.5 3.05108 4.42098 2.86032 4.28033 2.71966C4.13968 2.57901 3.94891 2.49999 3.75 2.49999V2.49999ZM1.5 3.24999C1.50012 2.83753 1.61363 2.43303 1.8281 2.08071C2.04258 1.72839 2.34978 1.4418 2.71612 1.25227C3.08247 1.06274 3.49386 0.977564 3.90535 1.00604C4.31683 1.03452 4.71257 1.17556 5.04931 1.41375C5.38606 1.65194 5.65085 1.97811 5.81474 2.35662C5.97864 2.73513 6.03534 3.15141 5.97864 3.55996C5.92194 3.96851 5.75403 4.35362 5.49325 4.67319C5.23248 4.99276 4.88888 5.2345 4.5 5.37199V10.628C5.00069 10.8049 5.4227 11.1532 5.69145 11.6112C5.9602 12.0692 6.05837 12.6075 5.96861 13.1308C5.87885 13.6542 5.60695 14.129 5.20095 14.4713C4.79496 14.8136 4.28103 15.0014 3.75 15.0014C3.21897 15.0014 2.70503 14.8136 2.29904 14.4713C1.89305 14.129 1.62114 13.6542 1.53139 13.1308C1.44163 12.6075 1.5398 12.0692 1.80855 11.6112C2.07729 11.1532 2.49931 10.8049 3 10.628V5.37199C2.56121 5.21686 2.18133 4.92948 1.91268 4.54943C1.64404 4.16939 1.49986 3.7154 1.5 3.24999V3.24999ZM11 2.49999H10V3.99999H11C11.2652 3.99999 11.5196 4.10535 11.7071 4.29289C11.8946 4.48042 12 4.73478 12 4.99999V10.628C11.4993 10.8049 11.0773 11.1532 10.8085 11.6112C10.5398 12.0692 10.4416 12.6075 10.5314 13.1308C10.6211 13.6542 10.893 14.129 11.299 14.4713C11.705 14.8136 12.219 15.0014 12.75 15.0014C13.281 15.0014 13.795 14.8136 14.201 14.4713C14.6069 14.129 14.8789 13.6542 14.9686 13.1308C15.0584 12.6075 14.9602 12.0692 14.6914 11.6112C14.4227 11.1532 14.0007 10.8049 13.5 10.628V4.99999C13.5 4.33695 13.2366 3.70107 12.7678 3.23223C12.2989 2.76339 11.663 2.49999 11 2.49999ZM12 12.75C12 12.5511 12.079 12.3603 12.2197 12.2197C12.3603 12.079 12.5511 12 12.75 12C12.9489 12 13.1397 12.079 13.2803 12.2197C13.421 12.3603 13.5 12.5511 13.5 12.75C13.5 12.9489 13.421 13.1397 13.2803 13.2803C13.1397 13.421 12.9489 13.5 12.75 13.5C12.5511 13.5 12.3603 13.421 12.2197 13.2803C12.079 13.1397 12 12.9489 12 12.75ZM3.75 12C3.55109 12 3.36032 12.079 3.21967 12.2197C3.07902 12.3603 3 12.5511 3 12.75C3 12.9489 3.07902 13.1397 3.21967 13.2803C3.36032 13.421 3.55109 13.5 3.75 13.5C3.94891 13.5 4.13968 13.421 4.28033 13.2803C4.42098 13.1397 4.5 12.9489 4.5 12.75C4.5 12.5511 4.42098 12.3603 4.28033 12.2197C4.13968 12.079 3.94891 12 3.75 12V12Z" fill="#57606a"/>
</svg>
