<svg width="16" height="16" viewBox="0 0 16 16" fill="none" xmlns="http://www.w3.org/2000/svg">
<path fill-rule="evenodd" clip-rule="evenodd" d="M11.5 6.99999C11.5 8.1932 11.026 9.33754 10.1823 10.1813C9.33854 11.025 8.19421 11.499 7.001 11.499C5.80779 11.499 4.66345 11.025 3.81972 10.1813C2.976 9.33754 2.502 8.1932 2.502 6.99999C2.502 5.80678 2.976 4.66244 3.81972 3.81872C4.66345 2.97499 5.80779 2.50099 7.001 2.50099C8.19421 2.50099 9.33854 2.97499 10.1823 3.81872C11.026 4.66244 11.5 5.80678 11.5 6.99999V6.99999ZM10.68 11.74C9.47437 12.676 7.95736 13.1173 6.4378 12.9741C4.91823 12.831 3.51034 12.1141 2.50075 10.9694C1.49115 9.8247 0.955747 8.33829 1.00353 6.81274C1.05132 5.28719 1.6787 3.8372 2.75795 2.75794C3.8372 1.67869 5.2872 1.05131 6.81275 1.00352C8.33829 0.95574 9.82471 1.49114 10.9694 2.50074C12.1141 3.51033 12.831 4.91822 12.9741 6.43779C13.1173 7.95736 12.676 9.47437 11.74 10.68L14.78 13.72C14.8537 13.7887 14.9128 13.8715 14.9538 13.9635C14.9948 14.0554 15.0168 14.1548 15.0186 14.2555C15.0204 14.3562 15.0018 14.4562 14.9641 14.5496C14.9264 14.643 14.8703 14.7278 14.799 14.799C14.7278 14.8702 14.643 14.9264 14.5496 14.9641C14.4562 15.0018 14.3562 15.0204 14.2555 15.0186C14.1548 15.0168 14.0555 14.9948 13.9635 14.9538C13.8715 14.9128 13.7887 14.8537 13.72 14.78L10.68 11.74V11.74Z" fill="#57606a"/>
</svg>
