<svg width="16" height="16" viewBox="0 0 16 16" fill="none" xmlns="http://www.w3.org/2000/svg">
<path fill-rule="evenodd" clip-rule="evenodd" d="M7.467 0.133009C7.81369 0.0221513 8.18631 0.0221513 8.533 0.133009L13.783 1.81301C14.1364 1.926 14.4447 2.14836 14.6634 2.448C14.8822 2.74763 15 3.10902 15 3.48001V7.00001C15 8.56601 14.68 10.182 13.697 11.682C12.714 13.18 11.112 14.495 8.665 15.537C8.45469 15.6264 8.22852 15.6725 8 15.6725C7.77148 15.6725 7.54531 15.6264 7.335 15.537C4.888 14.495 3.286 13.18 2.303 11.682C1.32 10.182 1 8.56601 1 7.00001V3.48001C0.99997 3.10902 1.11784 2.74763 1.33658 2.448C1.55533 2.14836 1.86364 1.926 2.217 1.81301L7.467 0.133009V0.133009ZM8.077 1.56201C8.02725 1.54602 7.97375 1.54602 7.924 1.56201L2.674 3.24201C2.62352 3.25812 2.57946 3.28985 2.54818 3.33263C2.51691 3.37541 2.50004 3.42702 2.5 3.48001V7.00001C2.5 8.35801 2.775 9.66601 3.557 10.86C4.341 12.054 5.678 13.2 7.923 14.157C7.9474 14.1672 7.97357 14.1724 8 14.1724C8.02643 14.1724 8.0526 14.1672 8.077 14.157C10.322 13.201 11.659 12.053 12.443 10.859C13.225 9.66601 13.5 8.36001 13.5 7.00001V3.48001C13.4998 3.42719 13.4828 3.3758 13.4515 3.33323C13.4203 3.29065 13.3763 3.25907 13.326 3.24301L8.076 1.56301L8.077 1.56201ZM9 10.5C9 10.7652 8.89464 11.0196 8.70711 11.2071C8.51957 11.3947 8.26522 11.5 8 11.5C7.73478 11.5 7.48043 11.3947 7.29289 11.2071C7.10536 11.0196 7 10.7652 7 10.5C7 10.2348 7.10536 9.98044 7.29289 9.7929C7.48043 9.60537 7.73478 9.50001 8 9.50001C8.26522 9.50001 8.51957 9.60537 8.70711 9.7929C8.89464 9.98044 9 10.2348 9 10.5V10.5ZM8.75 4.75001C8.75 4.5511 8.67098 4.36033 8.53033 4.21968C8.38968 4.07903 8.19891 4.00001 8 4.00001C7.80109 4.00001 7.61032 4.07903 7.46967 4.21968C7.32902 4.36033 7.25 4.5511 7.25 4.75001V7.75001C7.25 7.94892 7.32902 8.13969 7.46967 8.28034C7.61032 8.42099 7.80109 8.50001 8 8.50001C8.19891 8.50001 8.38968 8.42099 8.53033 8.28034C8.67098 8.13969 8.75 7.94892 8.75 7.75001V4.75001Z" fill="#57606a"/>
</svg>
